<svg xmlns="http://www.w3.org/2000/svg" viewBox="0 0 64 64" fill="none" aria-hidden="true">
  <path d="M33.25,28.84 L33.48,28.88 L33.72,28.94 L33.95,29.02 L34.17,29.11 L34.40,29.22 L34.62,29.35 L34.83,29.50 L35.03,29.66 L35.22,29.84 L35.41,30.03 L35.58,30.24 L35.74,30.47 L35.89,30.70 L36.02,30.95 L36.13,31.21 L36.23,31.49 L36.30,31.77 L36.36,32.06 L36.40,32.35 L36.42,32.65 L36.42,32.96 L36.40,33.27 L36.35,33.58 L36.29,33.89 L36.20,34.20 L36.09,34.50 L35.95,34.80 L35.80,35.09 L35.62,35.38 L35.43,35.65 L35.21,35.91 L34.97,36.16 L34.71,36.40 L34.44,36.62 L34.14,36.82 L33.83,37.00 L33.51,37.17 L33.17,37.31 L32.82,37.43 L32.46,37.52 L32.09,37.60 L31.71,37.64 L31.33,37.66 L30.94,37.66 L30.55,37.63 L30.16,37.57 L29.77,37.48 L29.39,37.37 L29.01,37.23 L28.63,37.06 L28.27,36.86 L27.92,36.64 L27.58,36.40 L27.25,36.13 L26.94,35.83 L26.65,35.51 L26.38,35.17 L26.13,34.81 L25.91,34.43 L25.71,34.04 L25.53,33.62 L25.39,33.20 L25.27,32.76 L25.18,32.31 L25.12,31.85 L25.09,31.38 L25.10,30.91 L25.13,30.44 L25.20,29.97 L25.30,29.50 L25.44,29.03 L25.60,28.58 L25.80,28.13 L26.03,27.69 L26.29,27.26 L26.58,26.86 L26.90,26.47 L27.25,26.09 L27.63,25.75 L28.03,25.42 L28.45,25.12 L28.90,24.85 L29.37,24.61 L29.86,24.40 L30.36,24.22 L30.88,24.07 L31.41,23.96 L31.94,23.89 L32.49,23.85 L33.04,23.85 L33.60,23.88 L34.15,23.96 L34.70,24.07 L35.25,24.22 L35.79,24.40 L36.31,24.63 L36.83,24.89 L37.33,25.19 L37.81,25.52 L38.27,25.88 L38.70,26.28 L39.11,26.71 L39.50,27.17 L39.85,27.66 L40.17,28.17 L40.46,28.71 L40.71,29.27 L40.93,29.84 L41.10,30.44 L41.24,31.05 L41.34,31.67 L41.39,32.29 L41.41,32.93 L41.38,33.56 L41.30,34.20 L41.18,34.84 L41.02,35.46 L40.82,36.08 L40.57,36.69 L40.29,37.28 L39.96,37.86 L39.59,38.41 L39.18,38.94 L38.73,39.45 L38.25,39.92 L37.74,40.37 L37.19,40.78 L36.62,41.16 L36.01,41.50 L35.39,41.79 L34.74,42.05 L34.07,42.26 L33.38,42.43 L32.68,42.55 L31.97,42.63 L31.26,42.66 L30.54,42.64 L29.82,42.57 L29.10,42.45 L28.39,42.28 L27.69,42.07 L27.00,41.80 L26.33,41.49 L25.67,41.14 L25.04,40.73 L24.44,40.29 L23.86,39.80 L23.31,39.27 L22.80,38.70 L22.33,38.10 L21.90,37.46 L21.50,36.80 L21.16,36.10 L20.85,35.38 L20.60,34.64 L20.40,33.88 L20.24,33.10 L20.14,32.31 L20.09,31.52 L20.10,30.72 L20.16,29.91 L20.27,29.11 L20.44,28.32 L20.67,27.53 L20.94,26.76 L21.27,26.00 L21.65,25.27 L22.08,24.56 L22.56,23.88 L23.09,23.22 L23.66,22.61 L24.28,22.03 L24.93,21.49 L25.63,20.99 L26.36,20.54 L27.12,20.14 L27.90,19.79 L28.72,19.49 L29.55,19.25 L30.41,19.06 L31.27,18.93 L32.15,18.85 L33.04,18.84 L33.92,18.89 L34.81,18.99 L35.69,19.16 L36.56,19.38 L37.42,19.67 L38.25,20.01 L39.07,20.41 L39.86,20.87 L40.62,21.38 L41.35,21.94 L42.04,22.55 L42.70,23.21 L43.30,23.92 L43.87,24.66 L44.38,25.45 L44.84,26.27 L45.24,27.13 L45.59,28.01 L45.88,28.92 L46.11,29.85 L46.27,30.79 L46.38,31.75 L46.41,32.72 L46.39,33.69 L46.29,34.66 L46.14,35.62 L45.91,36.58 L45.62,37.52 L45.27,38.44 L44.86,39.34 L44.38,40.22 L43.85,41.06 L43.25,41.87 L42.60,42.64 L41.90,43.37 L41.15,44.05 L40.35,44.68 L39.51,45.26 L38.63,45.78 L37.71,46.24 L36.76,46.64 L35.78,46.98 L34.78,47.25 L33.76,47.46 L32.72,47.59 L31.67,47.66 L30.62,47.66 L29.57,47.58 L28.52,47.44 L27.48,47.22 L26.45,46.93 L25.44,46.58 L24.45,46.15 L23.49,45.66 L22.56,45.10 L21.67,44.48" stroke="#0E7C86" stroke-width="2.55" stroke-linecap="round" stroke-linejoin="round"/>
</svg>
